<svg height="24" viewBox="0 0 20.248 24" width="20.248" xmlns="http://www.w3.org/2000/svg">
    <g id="profile_light_active_icon" transform="translate(-417.873 -133)">
        <!-- Green profile circle -->
        <path d="M432.68,139.02a4.688,4.688,0,1,1-4.68-4.68A4.636,4.636,0,0,1,432.68,139.02Z"
            data-name="Path 7156" fill="#FCD77E" id="Path_7156" />
        <!-- Green base shape -->
        <path
            d="M436.79,153.72a1.837,1.837,0,0,1-1.9,1.97H421.15a1.834,1.834,0,0,1-1.75-1.05,1.787,1.787,0,0,1-.19-.92,8.818,8.818,0,0,1,2.32-5.82,8.445,8.445,0,0,1,4.73-2.67,9.8,9.8,0,0,1,1.84-.18,8.513,8.513,0,0,1,5.83,2.32,8.616,8.616,0,0,1,2.68,4.72A8.268,8.268,0,0,1,436.79,153.72Z"
            data-name="Path 7157" fill="#FCD77E" id="Path_7157" />
    </g>
</svg>
